# xmcd
#
# Track frame offsets:
#	150
#	9252
#	21050
#	32775
#	44432
#	55027
#	67390
#	78932
#	88942
#	100907
#	113635
#	126127
#
# Disc length: 1816 seconds
#
# Revision: 1
# Processed by: cddbd v1.4PL0 Copyright (c) Steve Scherf et al.
# Submitted via: audiograbber 1.81.02
#
DISCID=9607160c
DTITLE=Buddy Emmons - Buddy Emmons Sings Bob Wills
DYEAR=1976
DGENRE=Country
TTITLE0=Deep In The Heart Of Texas
TTITLE1=Bottle Baby Boogie
TTITLE2=Boot Heel Drag
TTITLE3=Deep Water
TTITLE4=I Needed You
TTITLE5=New Road Under My Wheels
TTITLE6=Roley Poley
TTITLE7=If No News Is Good News
TTITLE8=Four, Five Times
TTITLE9=Twinkle, Twinkle Little Star
TTITLE10=Time Changes Everything
TTITLE11=End Of The Line
EXTD=
EXTT0=
EXTT1=
EXTT2=
EXTT3=
EXTT4=
EXTT5=
EXTT6=
EXTT7=
EXTT8=
EXTT9=
EXTT10=
EXTT11=
PLAYORDER=
